<?xml version="1.0" standalone="no"?>
<!DOCTYPE svg PUBLIC "-//W3C//DTD SVG 20010904//EN"
 "http://www.w3.org/TR/2001/REC-SVG-20010904/DTD/svg10.dtd">
<svg version="1.0" xmlns="http://www.w3.org/2000/svg"
 width="1128.000000pt" height="755.000000pt" viewBox="0 0 1128.000000 755.000000"
 preserveAspectRatio="xMidYMid meet">

<g transform="translate(0.000000,755.000000) scale(0.100000,-0.100000)"
fill="#000000" stroke="none">
<path d="M8682 6720 c-42 -26 -76 -99 -69 -146 5 -32 5 -33 -20 -23 -14 5 -48
10 -77 10 -28 1 -78 7 -111 15 -114 26 -189 13 -246 -45 -41 -41 -69 -117 -69
-187 l0 -43 85 -50 c46 -28 103 -60 125 -71 l40 -21 23 27 c17 20 29 25 44 20
49 -16 47 -120 -2 -132 -16 -4 -33 -27 -58 -77 -40 -80 -106 -160 -181 -219
l-50 -40 44 6 c25 4 166 18 314 31 149 14 271 26 272 28 1 1 6 20 11 42 l9 40
18 -33 c14 -27 22 -33 39 -28 12 3 28 6 35 6 7 0 18 12 24 26 9 20 17 24 35
19 13 -3 23 -2 23 2 0 30 -113 440 -130 473 -12 23 -20 43 -18 44 2 1 22 8 44
14 81 23 123 93 111 182 -7 51 -33 85 -85 111 -91 45 -198 -9 -222 -112 l-8
-34 -1 32 c-1 46 15 82 55 120 41 38 41 40 -4 13z"/>
<path d="M2140 6713 c-8 -3 -18 -11 -22 -17 -4 -6 -8 -286 -8 -623 l0 -612 33
10 c115 34 279 53 452 52 251 0 441 -34 657 -118 86 -34 102 -37 208 -39 93
-1 126 -6 173 -25 110 -44 198 -114 374 -297 166 -173 269 -262 349 -302 l41
-21 27 28 c17 18 32 51 42 90 15 67 13 81 -14 81 -9 0 -76 20 -148 44 -290 98
-441 207 -519 378 -73 159 -48 311 69 437 114 121 231 172 547 236 122 24 224
47 227 49 2 3 -23 61 -57 128 -76 153 -191 308 -312 421 -100 93 -108 133 -9
47 150 -130 311 -353 380 -528 29 -72 21 -71 150 -10 109 52 207 148 241 236
42 109 24 248 -43 319 -11 12 -17 26 -13 32 4 8 -143 11 -503 11 l-510 0 -7
-37 c-4 -21 -21 -69 -39 -108 -114 -244 -340 -387 -611 -388 -126 0 -203 19
-327 81 -96 48 -96 48 -106 27 -28 -60 -137 -145 -187 -145 -23 0 -18 -13 15
-45 74 -71 68 -219 -12 -291 -40 -37 -85 -54 -143 -54 -208 0 -289 266 -116
380 24 17 53 30 63 30 15 0 13 6 -14 44 -42 61 -49 128 -16 175 37 55 71 74
137 79 71 5 135 -14 210 -63 29 -19 57 -35 62 -35 5 0 9 33 9 73 0 86 -27 153
-84 206 -38 37 -44 51 -22 51 20 0 85 -76 110 -129 17 -36 21 -65 21 -139 l0
-93 48 -30 c95 -59 237 -99 352 -99 275 0 524 179 615 444 10 30 16 57 13 60
-8 8 -1763 6 -1783 -1z"/>
<path d="M5004 6687 c65 -85 84 -203 51 -313 -8 -27 -15 -49 -15 -49 0 0 36 0
79 0 72 0 83 -3 122 -30 23 -16 53 -50 67 -75 21 -39 23 -54 19 -116 l-5 -72
37 -6 c94 -15 181 -115 221 -255 13 -44 27 -81 32 -81 20 0 99 44 137 77 88
74 119 199 74 288 -28 55 -101 121 -209 190 -112 72 -170 127 -200 190 -45 94
-23 196 52 245 30 20 84 27 84 11 0 -5 -12 -12 -27 -16 -46 -11 -74 -34 -94
-78 -25 -55 -24 -82 5 -143 32 -69 76 -110 209 -198 179 -118 234 -194 224
-312 -9 -114 -71 -196 -193 -257 -73 -36 -70 -28 -53 -172 17 -149 56 -274 80
-260 5 4 58 75 116 158 126 179 225 282 307 321 75 35 161 52 210 40 57 -14
39 -29 -29 -26 -70 4 -152 -21 -218 -67 -66 -45 -146 -137 -248 -283 -50 -73
-101 -143 -112 -155 l-20 -23 29 -41 c63 -91 201 -183 313 -209 75 -18 211 -8
284 20 l57 23 0 836 c0 509 -4 842 -10 851 -8 13 -99 15 -705 18 l-696 2 25
-33z"/>
<path d="M2565 6441 c-94 -23 -135 -117 -85 -198 26 -43 57 -62 113 -69 90
-13 184 36 238 123 l23 36 -30 24 c-75 61 -195 100 -259 84z"/>
<path d="M4867 6139 c-21 -15 -73 -42 -115 -59 -42 -18 -78 -33 -80 -35 -1 -1
11 -55 28 -119 58 -226 60 -455 5 -670 -12 -50 -22 -92 -21 -93 1 -1 27 11 59
27 173 87 373 74 539 -36 58 -39 129 -112 158 -164 7 -12 19 -6 61 35 93 91
171 186 165 204 -3 9 -17 48 -30 87 -15 40 -32 126 -41 200 -9 70 -17 130 -19
131 -1 1 -20 -3 -42 -9 -21 -6 -80 -11 -130 -12 -83 -1 -96 2 -157 32 -49 24
-75 45 -97 76 -32 47 -53 119 -44 153 5 18 0 23 -33 32 -94 26 -149 90 -161
188 l-7 60 -38 -28z"/>
<path d="M4618 6035 c-3 -3 -94 -23 -204 -45 -204 -40 -298 -67 -369 -102
-248 -127 -334 -328 -231 -545 76 -160 228 -266 513 -359 75 -24 144 -44 153
-44 11 0 29 19 45 46 15 25 48 70 74 98 40 44 52 67 69 132 35 128 42 172 48
314 7 154 -9 290 -51 427 -24 76 -33 92 -47 78z"/>
<path d="M5262 5971 c-23 -21 -59 -43 -79 -48 -47 -11 -57 -29 -49 -86 21
-137 180 -213 370 -177 77 14 78 18 46 121 -38 122 -123 212 -212 225 -28 4
-40 -2 -76 -35z"/>
<path d="M2380 5490 c-35 -5 -111 -19 -167 -31 l-103 -22 0 -859 0 -859 72 62
c186 160 404 262 735 345 81 20 149 38 151 39 1 1 -56 88 -127 192 -213 309
-331 438 -493 535 -77 46 -200 88 -258 88 -44 0 -70 8 -70 21 0 14 77 11 146
-6 134 -31 250 -101 383 -229 101 -98 173 -189 321 -406 62 -91 117 -171 124
-178 9 -10 51 -4 206 27 546 110 785 210 1017 425 l68 63 -52 26 c-81 42 -189
135 -313 271 -63 70 -149 156 -190 192 -116 101 -261 164 -376 164 -48 0 -49
-14 -5 -43 101 -67 154 -150 155 -242 1 -128 -106 -234 -237 -235 -130 0 -237
115 -237 256 0 34 7 78 15 98 22 51 81 113 134 141 l46 23 -30 12 c-110 43
-140 53 -221 75 -51 14 -130 33 -175 41 -99 19 -423 27 -519 14z"/>
<path d="M3302 5309 c-62 -31 -127 -108 -142 -169 -28 -118 45 -246 158 -275
77 -20 147 2 209 67 102 107 54 262 -115 369 -55 35 -55 35 -110 8z"/>
<path d="M5643 5138 c-23 -29 -73 -84 -111 -121 l-68 -68 24 -71 c68 -203 -7
-453 -172 -577 -39 -30 -46 -40 -51 -80 -18 -132 -82 -278 -191 -432 l-63 -89
324 0 c308 0 325 1 325 18 0 27 43 149 75 212 114 226 320 405 559 486 81 28
86 28 86 11 0 -7 -22 -19 -50 -26 -65 -17 -201 -83 -264 -129 -186 -134 -332
-344 -380 -544 l-6 -28 343 0 c253 0 346 3 355 12 9 9 12 165 12 640 0 345 -3
628 -7 628 -5 0 -32 -9 -62 -21 -77 -29 -200 -36 -278 -16 -122 32 -246 111
-313 200 -19 25 -37 47 -40 47 -3 0 -24 -24 -47 -52z"/>
<path d="M4435 4721 c-3 -5 -1 -12 5 -16 5 -3 10 1 10 9 0 18 -6 21 -15 7z"/>
<path d="M4335 4614 c-38 -36 -113 -94 -166 -130 -202 -135 -404 -206 -844
-297 l-205 -43 53 -64 c134 -162 293 -283 436 -332 35 -12 61 -27 61 -34 0
-12 110 -14 655 -14 l654 0 72 103 c108 154 189 336 189 424 l0 22 -54 -25
c-29 -13 -90 -30 -134 -36 -159 -23 -323 32 -441 151 -79 78 -118 147 -146
256 -27 104 -38 106 -130 19z"/>
<path d="M8586 4183 c-10 -32 -37 -99 -61 -149 -53 -110 -106 -164 -160 -164
l-36 0 -79 -161 c-43 -88 -83 -165 -88 -172 -5 -7 -18 -41 -27 -77 -38 -141
-113 -260 -165 -260 -22 0 -14 57 -99 -720 -100 -909 -99 -897 -75 -914 37
-28 145 -41 332 -39 176 1 184 2 208 24 50 47 110 252 182 629 l38 195 44
-120 c80 -221 172 -460 196 -507 30 -60 56 -67 144 -44 137 35 425 196 436
243 22 85 -217 592 -562 1189 l-93 162 15 63 c8 35 34 127 57 204 42 138 42
142 42 295 0 130 -4 170 -23 246 l-24 92 -56 15 c-32 8 -73 18 -93 21 l-35 6
-18 -57z"/>
<path d="M2925 4101 c-194 -49 -283 -80 -430 -151 -121 -58 -216 -120 -313
-204 l-54 -46 764 1 c745 0 762 1 713 18 -160 57 -348 203 -465 360 -25 33
-49 60 -55 60 -5 0 -77 -17 -160 -38z"/>
<path d="M8060 3898 l0 -53 26 43 c29 48 29 47 -3 56 -22 7 -23 5 -23 -46z"/>
<path d="M9527 1245 l-145 -216 -7 43 c-4 24 -13 53 -19 66 -12 22 -13 22 -28
5 -9 -10 -25 -45 -36 -78 l-20 -59 -76 -32 c-41 -17 -87 -41 -102 -53 -26 -21
-31 -21 -569 -21 l-542 0 -5 73 c-3 50 -13 91 -31 130 -14 31 -28 57 -30 57
-3 0 -110 -46 -392 -170 l-40 -17 0 66 0 66 -35 -3 c-80 -7 -288 -90 -346
-139 -12 -10 -27 -28 -33 -40 l-12 -23 -2932 -2 -2932 -3 2940 -5 2940 -5 55
-22 c89 -35 236 -46 510 -41 251 6 288 11 323 49 17 18 37 19 556 19 l539 0 6
-25 c10 -38 48 -57 111 -56 49 0 105 16 235 67 26 10 114 14 355 16 l320 3
-310 5 -309 5 83 48 c139 81 278 176 295 202 18 27 21 81 6 119 -9 26 -156
186 -170 186 -4 0 -73 -97 -153 -215z"/>
</g>
</svg>
