<?xml version="1.0" standalone="no"?>
<!DOCTYPE svg PUBLIC "-//W3C//DTD SVG 20010904//EN"
 "http://www.w3.org/TR/2001/REC-SVG-20010904/DTD/svg10.dtd">
<svg version="1.0" xmlns="http://www.w3.org/2000/svg"
 width="1179.000000pt" height="887.000000pt" viewBox="0 0 1179.000000 887.000000"
 preserveAspectRatio="xMidYMid meet">

<g transform="translate(0.000000,887.000000) scale(0.100000,-0.100000)"
fill="#000000" stroke="none">
<path d="M4845 6583 c-546 -46 -991 -459 -1071 -994 -8 -56 -13 -107 -11 -113
2 -6 -46 -83 -106 -171 -609 -890 -1252 -1892 -1477 -2301 -33 -59 -35 -60
-62 -50 -23 9 -31 7 -53 -14 -55 -52 -18 -173 49 -156 40 10 60 48 53 104 -5
43 -1 55 51 147 251 447 896 1448 1471 2284 l106 154 170 -7 c94 -3 294 -6
447 -6 l276 0 -34 -80 c-209 -495 -614 -1806 -1065 -3443 -85 -308 -94 -337
-113 -336 -43 4 -56 -2 -71 -31 -21 -40 -19 -82 6 -114 52 -67 134 5 108 97
-7 27 6 84 80 347 210 747 518 1794 682 2318 163 522 359 1082 420 1203 l18
36 363 -3 c200 -2 758 -9 1241 -14 483 -6 929 -10 992 -10 l114 0 229 -312
c823 -1124 1484 -2053 1849 -2600 135 -203 165 -254 167 -287 4 -56 29 -91 66
-91 69 0 96 122 36 162 -18 13 -58 9 -76 -7 -14 -13 -30 8 -165 212 -338 512
-1088 1567 -1888 2656 l-196 267 44 0 45 0 0 54 c0 133 -51 319 -128 470 -176
343 -504 572 -895 625 -72 10 -1563 14 -1672 4z"/>
<path d="M4060 4779 c-9 -6 -51 -7 -110 -3 l-96 6 -51 -109 c-28 -59 -73 -162
-101 -228 -27 -66 -93 -204 -146 -307 -81 -157 -96 -194 -96 -233 0 -59 13
-83 55 -101 118 -49 164 3 285 326 34 91 110 266 170 390 125 261 135 290 90
259z"/>
<path d="M6054 4150 c-180 -41 -238 -104 -253 -273 -11 -121 -43 -210 -132
-370 -18 -31 -30 -60 -27 -63 3 -3 22 -2 42 1 33 7 36 10 36 40 0 37 27 75 73
103 31 19 137 37 206 34 l33 -1 -6 41 c-4 23 -18 54 -31 70 -26 30 -48 98 -43
126 5 27 127 54 214 48 83 -5 194 -34 201 -52 2 -6 -1 -31 -7 -55 -11 -40 -50
-87 -114 -137 -11 -9 -16 -29 -16 -71 l0 -58 66 -28 c86 -37 94 -46 94 -108
l0 -52 97 -48 c53 -26 98 -45 101 -42 3 3 6 70 6 148 1 162 -13 223 -67 304
-31 46 -32 51 -20 82 21 51 1 107 -55 158 -73 65 -91 85 -125 133 -60 83 -133
102 -273 70z"/>
<path d="M6286 2904 c-3 -9 -6 -17 -6 -18 0 -1 13 -12 29 -24 l29 -21 -10 40
c-11 40 -31 51 -42 23z"/>
<path d="M6621 2876 c2 -2 89 -74 193 -160 l189 -157 61 7 c107 12 146 51 146
148 0 49 -2 56 -22 61 -34 8 -555 105 -564 105 -4 0 -5 -2 -3 -4z"/>
<path d="M5776 2834 l-69 -36 -50 21 c-27 12 -54 21 -58 21 -5 0 -9 -60 -9
-132 0 -143 8 -168 61 -206 29 -20 92 -20 424 2 121 9 273 18 337 22 111 6
117 8 107 26 -5 10 -14 16 -20 13 -5 -4 -88 35 -184 85 -135 71 -179 89 -192
81 -14 -7 -21 -3 -35 20 -19 32 -182 119 -220 119 -13 -1 -54 -17 -92 -36z"/>
<path d="M6610 2606 c0 -10 101 -67 112 -63 7 2 -15 18 -49 36 -35 17 -63 29
-63 27z"/>
<path d="M6526 2504 c-11 -29 -6 -42 19 -46 29 -6 30 -6 10 32 -18 34 -21 36
-29 14z"/>
<path d="M6727 2454 c-2 -14 0 -27 7 -29 13 -4 608 -105 619 -105 4 0 7 4 7 9
0 5 -15 12 -32 16 -18 4 -155 36 -305 71 -150 35 -277 64 -282 64 -5 0 -11
-12 -14 -26z"/>
<path d="M6883 1808 c-38 -18 -26 -47 24 -62 19 -6 25 -1 43 33 l20 41 -32 -1
c-18 0 -43 -5 -55 -11z"/>
<path d="M7970 1779 c0 -40 1 -41 27 -34 57 14 69 44 28 63 -45 21 -55 16 -55
-29z"/>
<path d="M6663 1690 c-28 -11 -29 -26 -4 -40 25 -13 271 -14 271 -1 0 17 -20
23 -123 37 -118 16 -115 15 -144 4z"/>
<path d="M8080 1684 c-118 -16 -130 -19 -130 -34 0 -17 282 -13 306 4 14 11
16 18 8 26 -18 18 -73 19 -184 4z"/>
<path d="M6676 1518 c-22 -31 -20 -64 4 -88 27 -27 44 -26 184 16 126 37 153
52 143 78 -5 14 -29 16 -161 16 -149 0 -155 -1 -170 -22z"/>
<path d="M7957 1533 c-4 -3 -7 -14 -7 -24 0 -14 27 -27 129 -59 70 -22 139
-40 153 -40 33 0 61 33 60 71 -1 56 -10 59 -177 59 -83 0 -155 -3 -158 -7z"/>
<path d="M7040 1374 c-74 -53 -140 -105 -147 -117 -29 -52 -6 -108 54 -134 65
-27 90 -9 213 152 61 79 110 150 110 159 0 19 -6 22 -55 29 -38 6 -47 1 -175
-89z"/>
<path d="M7745 1463 c-58 -15 -66 -22 -54 -45 7 -13 57 -83 113 -155 111 -147
136 -165 201 -143 19 6 42 21 50 33 15 22 20 73 9 102 -6 16 -260 202 -286
209 -7 2 -22 1 -33 -1z"/>
<path d="M7405 1418 c-27 -114 -65 -315 -65 -342 0 -96 142 -150 223 -86 51
40 52 71 11 270 l-38 180 -63 0 c-57 0 -63 -2 -68 -22z"/>
</g>
</svg>
